<?xml version="1.0" standalone="no"?>
<!DOCTYPE svg PUBLIC "-//W3C//DTD SVG 1.0//EN" "http://www.w3.org/TR/2001/REC-SVG-20010904/DTD/svg10.dtd">
<svg xmlns="http://www.w3.org/2000/svg" xmlns:xlink="http://www.w3.org/1999/xlink" id="body_1" width="92" height="34">

<g transform="matrix(0.24637681 0 0 0.24637681 0.5434794 -0)">
    <path d="M289 138C 287.39 136.87 285.45 137.31 283.69 136.92C 278.425 135.851 273.611 133.204 269.888 129.331C 266.165 125.458 263.71 120.543 262.85 115.24C 260.75 103.82 262.36 96.42 269.85 83.75C 254.96 81.6 245.1 73.75 241.66 58.49C 231.44 68.61 219.12 68.44 206.57 65.85C 197.33 63.94 191.89 56.64 191.31 46.26L191.31 46.26L207.92 45.48C 211.63 53.82 214.44 55.91 220.55 55.13C 223.8 54.72 226.4 53.4 226.89 49.85C 227.38 46.3 225.09 44.61 222.22 43.67C 218.43 42.43 214.56 41.48 210.72 40.39C 207.323 39.5412 204.071 38.1932 201.07 36.39C 190.16 29.39 190.63 14.52 202.29 8.83C 212.19 3.99 222.69 4.37 232.86 8.1C 239.22 10.44 242.03 15.95 243.06 22.87C 237.89 24.45 232.59 23.94 227.36 24.16C 225.87 24.22 225.47 23.04 225.04 21.94C 223.18 17.1 219.3 16.42 214.82 16.94C 212.61 17.21 210.96 18.4 210.57 20.56C 210.14 22.98 211.88 24.27 213.91 24.85C 218.54 26.18 223.23 27.31 227.91 28.54C 234.29 30.23 240.17 32.73 243.91 39.54C 249.5 27.34 257.81 18.54 269.41 13.24C 279.08 8.79 289.11 7.35 299.5 10.66C 317 16.26 325 34.54 317.91 52.83C 314.18 62.41 307.74 69.83 298.55 76.32C 308.89 78.17 316.7 82.5 321.82 91.25L321.82 91.25L321.82 77.64L340.08 77.64L340.08 122L369 122L369 137L321.81 137L321.81 123.19C 316.26 132.41 307.81 136.3 298 138L298 138L289 138zM275.19 82.19C 294.73 81 311.94 67.61 317.33 49.43C 323.19 29.64 311.57 12.98 291.15 10.57C 272.24 8.33 247.58 26.57 243.9 45.25C 239.74 66.38 253.82 83.49 275.19 82.19zM305.39 107.26C 305.285 104.853 305.058 102.454 304.71 100.07C 304.284 97.3279 302.894 94.8276 300.79 93.0184C 298.685 91.2093 296.005 90.2099 293.23 90.2C 290.541 90.0535 287.888 90.8669 285.743 92.4952C 283.598 94.1235 282.102 96.4607 281.52 99.09C 280.111 104.43 280.149 110.049 281.63 115.37C 283.32 121.37 287.63 124.17 294.01 123.87C 299.61 123.62 303.39 120.35 304.61 114.46C 305.05 112.35 305.09 110.17 305.39 107.26z" stroke="none" fill="#FFFFFF" fill-rule="nonzero" />
    <path d="M209 138C 203.54 136.71 197.84 136.22 193.12 132.64C 189.781 129.97 186.779 126.904 184.18 123.51L184.18 123.51L184.18 136.74L165.74 136.74L165.74 113.11L145.69 113.11L145.69 136.64L127.4 136.64L127.4 77.64L145.46 77.64L145.46 97.64L165.54 97.64L165.54 77.61L183.68 77.61C 184.76 81.85 183.68 86.18 184.41 91.25C 187.05 87.46 189.41 84.1 192.74 81.74C 202.97 74.6 221.32 74.23 231.62 81.3C 243.3 89.3 244.41 101.4 242.82 113.87C 241.35 125.4 234.88 133.41 223.31 136.62C 221.24 137.19 219.1 137.55 217 138L217 138L209 138zM200.11 106.75C 199.819 110.415 200.42 114.097 201.86 117.48C 204.13 122.31 208.12 124.06 213.22 123.89C 218.03 123.74 221.59 121.61 223.22 117.03C 225.464 110.882 225.576 104.159 223.54 97.94C 222.723 95.707 221.252 93.7725 219.318 92.3895C 217.384 91.0065 215.078 90.2394 212.701 90.1887C 210.324 90.1379 207.987 90.8057 205.995 92.1049C 204.004 93.404 202.451 95.2739 201.54 97.47C 200.369 100.416 199.88 103.588 200.11 106.75z" stroke="none" fill="#FFFFFF" fill-rule="nonzero" />
    <path d="M1 117L17.83 116C 22.03 124.85 24.4 126.64 30.7 125.92C 33.8 125.57 36.19 124.17 36.83 120.99C 37.52 117.58 35.4 115.57 32.5 114.61C 26.67 112.69 20.61 111.39 14.9 109.16C 5.34 105.4 1.28 97.55 4 89C 5.94 82.9 10.53 79.45 16.43 77.78C 24.1789 75.6198 32.3711 75.6198 40.12 77.78C 45.58 79.24 49.37 82.78 51.87 88.29C 61.87 75.74 74.73 74.46 88.66 77.76C 97.46 79.85 102.08 86.37 105.02 94.76L105.02 94.76L91.73 98C 89.88 98.45 88.73 98 87.79 96C 85.47 91.16 81.29 89.45 76.18 90.32C 71.07 91.19 68.13 94.65 67 99.65C 65.9151 104.544 65.9151 109.616 67 114.51C 68.21 120.37 71 123.3 75.89 123.85C 82.04 124.53 85.68 122.45 88.19 116.78C 88.71 115.59 89.19 114.35 89.86 112.57L89.86 112.57L104.89 117C 104.7 126.1 96.75 135 87.33 137C 85.88 137.31 84.44 137.67 83 138L83 138L73 138C 65.17 136.4 57.73 134.07 52.94 126.3C 48.36 134.12 41.4 136.45 34 138L34 138L22 138C 11.13 136.52 3.76 131 1 120L1 120L1 117zM49.17 94.4L44.61 94.71C 40.16 94.99 35.37 96.51 33.34 90.19C 32.75 88.32 30.22 87.78 28.21 87.58C 24.92 87.24 21.32 87.58 20.51 91.32C 19.7 95.06 23.34 95.77 26.01 96.38C 33.27 98.04 40.52 99.69 47.53 103.16L47.53 103.16L49.17 94.4z" stroke="none" fill="#FFFFFF" fill-rule="nonzero" />
    <path d="M5.41998 6.68C 18.94 6.86 32.25 5.85 45.47 7.3C 53.41 8.17 58.09 13.6 59.03 21.13C 59.4858 24.62 58.8186 28.1644 57.1249 31.2497C 55.4312 34.3351 52.7991 36.8009 49.61 38.29C 48.61 38.8 47.61 39.29 46.2 39.92C 55.92 45.92 58.01 56.56 64.14 66.11C 56.75 66.11 50.39 66.17 44.04 66.11C 42.21 66.11 41.84 64.27 41.14 63.01C 38.14 57.62 35.32 52.16 32.33 46.79C 30.62 43.7 28.33 41.49 23.71 42.51L23.71 42.51L23.71 65.91L5.41998 65.91L5.41998 6.68zM24.1 30.54C 28.157 31.0718 32.2776 30.8411 36.25 29.86C 39.12 29.13 40.25 27.08 40.25 24.33C 40.25 21.58 38.64 19.52 35.81 19.21C 31.93 18.78 27.98 18.38 24.06 19.46C 23.5939 23.1395 23.6073 26.864 24.1 30.54z" stroke="none" fill="#FFFFFF" fill-rule="nonzero" />
    <path d="M295 27.9C 292.24 29.9 290.85 33 286.69 31.49C 284.63 30.74 282.69 32.49 282.9 35.49C 285.9 36.49 288.08 34.44 290.46 33.73C 296.57 31.9 300.15 32.67 302.31 36.63C 304.61 40.84 303.15 45.49 298.31 49.23C 291.98 54.16 288.08 54.31 282.56 49.59C 284.97 47.08 286.7 43.75 291.27 46.14C 292.82 46.96 294.49 45.76 295.55 44.35C 295.956 43.9163 296.182 43.3443 296.182 42.75C 296.182 42.1557 295.956 41.5837 295.55 41.15C 294.25 39.79 292.79 40.6 291.36 41.04C 288.67 41.85 286.11 43.16 283.19 43.15C 278.8 43.15 275.58 40.23 275.91 36.09C 276.33 30.71 280.44 28.21 284.62 26.02C 288.15 24.2 291.63 24.2 295 27.9z" stroke="none" fill="#FFFFFF" fill-rule="nonzero" />
    <path d="M261.86 63.55L266.64 58.81C 268.64 58.87 270.39 62.19 272.33 59.4C 273.81 57.27 271.78 55.68 270.73 54.12C 268.06 50.12 265.25 46.3 262.39 42.24C 264.323 40.2594 266.604 38.6525 269.12 37.5C 272.5 42.5 276.12 47.24 279.12 52.35C 282.12 57.46 280.56 61.82 275.6 65.18C 270.1 68.88 266.48 68.51 261.86 63.55z" stroke="none" fill="#FFFFFF" fill-rule="nonzero" />
</g>
</svg>